<?xml version="1.0" encoding="UTF-8"?>
<svg id="Layer_1" data-name="Layer 1" xmlns="http://www.w3.org/2000/svg" width="191" height="19" version="1.1" viewBox="0 0 191 19">
  <defs>
    <style>
      .cls-1 {
        fill: #000b68;
      }

      .cls-1, .cls-2 {
        stroke-width: 0px;
      }

      .cls-2 {
        fill: #e9efff;
      }
    </style>
  </defs>
  <path class="cls-2" d="M191,0H0v19h191V0Z"/>
  <g>
    <path class="cls-1" d="M35.5,6.65h-2.12v6.41h-1.8v-6.41h-2.12v-1.39h5.98l.05,1.39Z"/>
    <path class="cls-1" d="M37.92,7.95c.17-.25.39-.46.65-.61.25-.15.54-.22.84-.22.27-.01.54.04.79.14.25.11.47.27.64.48.4.57.58,1.26.53,1.95v3.33h-1.83v-3.31c.03-.32-.04-.64-.2-.92-.08-.09-.17-.15-.28-.2-.11-.04-.23-.06-.34-.05-.16,0-.32.02-.47.07-.12.05-.23.12-.32.22v4.19h-1.83V4.65h1.83v3.3Z"/>
    <path class="cls-1" d="M45.89,12.36c-.18.25-.41.45-.69.6-.29.14-.61.21-.93.2-.26.01-.53-.03-.77-.13-.25-.1-.47-.25-.64-.45-.39-.51-.57-1.15-.52-1.79v-3.54h1.82v3.55c-.02.26.05.51.19.72.06.08.14.15.23.19s.19.06.3.05c.18,0,.35-.02.52-.07.14-.05.27-.13.38-.24v-4.19h1.82v5.8h-1.6l-.11-.7Z"/>
    <path class="cls-1" d="M53.87,11.77c.1,0,.2,0,.29-.04.09-.03.18-.09.25-.16.13-.16.2-.37.18-.58h1.67c.02.29-.03.58-.15.85-.11.27-.29.5-.51.69-.49.41-1.11.62-1.75.6-.38.02-.76-.04-1.12-.18-.36-.14-.67-.36-.93-.64-.49-.59-.75-1.33-.73-2.09v-.13c-.02-.76.23-1.51.72-2.09.26-.28.57-.5.93-.64.35-.14.73-.21,1.12-.18.65-.03,1.29.19,1.78.62.23.21.4.48.51.77.11.29.16.6.13.91h-1.67c0-.24-.05-.47-.18-.67-.06-.09-.15-.16-.25-.2-.1-.05-.21-.07-.31-.06-.15,0-.29.05-.41.13-.12.08-.22.2-.27.33-.15.36-.22.74-.2,1.13v.13c-.01.38.05.76.2,1.11.07.13.17.23.3.3.13.07.27.11.41.1Z"/>
    <path class="cls-1" d="M60.57,12.36c-.17.25-.41.46-.69.6-.29.14-.6.2-.92.2-.27.01-.53-.03-.78-.13-.25-.1-.47-.25-.65-.45-.38-.52-.57-1.15-.52-1.79v-3.54h1.83v3.55c-.02.25.05.51.18.72.06.08.14.15.24.19.09.04.2.06.3.05.17,0,.34-.02.51-.07.14-.05.27-.13.38-.24v-4.19h1.83v5.8h-1.63l-.08-.7ZM61.74,4.92c0,.32-.11.64-.32.88-.1.12-.23.21-.37.27-.14.06-.29.1-.45.09-.31-.01-.61-.09-.89-.22-.25-.13-.52-.2-.79-.23-.06,0-.12.02-.17.05-.05.03-.09.08-.12.13-.09.12-.13.27-.13.42l-.96-.27c0-.32.12-.63.33-.88.1-.11.22-.21.36-.27s.29-.1.44-.1c.3.02.59.1.86.22.26.12.54.19.83.22.06,0,.12-.02.17-.05.05-.03.1-.07.13-.12.09-.12.13-.27.13-.42l.96.27Z"/>
    <path class="cls-1" d="M70.39,12.29c-.18.25-.43.45-.71.59-.41.19-.87.28-1.32.26-.31.01-.63-.04-.92-.16-.29-.11-.56-.28-.78-.5-.23-.22-.4-.49-.52-.78-.12-.29-.17-.6-.16-.92v-1.17c-.01-.61.21-1.21.62-1.66.21-.21.47-.38.75-.49s.58-.16.88-.15c.56-.03,1.11.14,1.56.48.18.15.33.33.43.54.1.21.15.44.16.67h-.74c-.02-.31-.16-.61-.39-.83-.28-.23-.63-.34-.99-.31-.2,0-.4.04-.59.12-.18.09-.34.21-.47.37-.28.35-.42.79-.4,1.24v1.18c-.02.46.15.91.45,1.26.14.16.32.29.52.37.2.09.41.13.63.12.27,0,.55-.04.8-.14.17-.06.33-.16.45-.29v-1.27h-1.27v-.61h2.04l-.02,2.08Z"/>
    <path class="cls-1" d="M72.44,7.73h-.78v-.83h.78v.83ZM72.44,13.05h-.78v-4.19h.78v4.19Z"/>
    <path class="cls-1" d="M76.27,13.05c0-.14,0-.24-.06-.35,0-.1,0-.2,0-.29-.15.21-.35.38-.57.51-.23.14-.49.21-.75.21-.19.02-.38,0-.57-.06-.18-.06-.35-.16-.49-.28-.12-.12-.22-.27-.28-.43-.06-.16-.09-.33-.08-.5,0-.19.04-.37.12-.54.09-.17.22-.31.37-.41.42-.26.92-.38,1.42-.35h.85v-.42c0-.11-.01-.22-.05-.32-.04-.1-.1-.19-.18-.27-.09-.08-.19-.14-.3-.17-.11-.04-.23-.05-.34-.05-.22-.01-.44.06-.61.19-.07.05-.13.12-.17.2-.04.08-.06.17-.06.26h-.75c0-.17.04-.33.11-.48.08-.15.19-.28.32-.37.34-.27.76-.42,1.2-.41.42-.02.84.11,1.17.37.15.13.27.29.34.47.08.18.11.38.1.57v2.04c-.01.15-.01.29,0,.44.02.14.05.28.08.42h-.81ZM74.98,12.48c.27,0,.54-.07.76-.21.2-.11.35-.28.44-.49v-.69h-.88c-.27-.01-.54.07-.75.24-.09.06-.16.14-.21.24-.05.09-.08.2-.08.31,0,.08.01.17.04.24.03.08.08.15.14.21.15.12.34.17.53.16ZM75.64,7.17h.91l-1.06,1.05h-.58l.73-1.05Z"/>
    <path class="cls-1" d="M80.81,8.81l.06.63c.13-.22.31-.4.53-.52.23-.13.48-.19.74-.19.19,0,.39.02.57.09.18.07.35.17.49.31.28.35.42.8.38,1.25v2.68h-.79v-2.67c.03-.28-.05-.56-.22-.79-.09-.09-.19-.15-.31-.2-.12-.04-.24-.06-.37-.05-.21,0-.42.05-.6.16-.17.11-.31.26-.41.44v3.14h-.78v-4.19l.72-.09Z"/>
    <path class="cls-1" d="M84.55,11.01c-.03-.59.13-1.16.45-1.65.14-.2.32-.36.54-.47.22-.11.46-.16.71-.15.25,0,.49.05.71.17.21.11.39.27.52.46l.1-.54h.62v4.26c.02.23-.02.46-.1.68-.08.22-.21.41-.37.58-.39.31-.89.46-1.39.43-.22,0-.45-.03-.67-.08-.22-.04-.44-.12-.63-.23l.2-.6c.16.09.33.15.51.19.19.05.39.07.58.07.3.03.6-.06.84-.25.18-.22.27-.5.25-.79v-.48c-.13.17-.3.31-.5.41-.21.09-.44.14-.68.14-.24.01-.47-.03-.69-.13-.22-.1-.4-.25-.55-.43-.32-.43-.48-.95-.45-1.49v-.07ZM85.34,11.09c-.02.37.07.74.28,1.05.09.13.22.23.36.3.14.07.3.1.46.09.21,0,.42-.05.59-.16.16-.12.3-.27.39-.45v-1.97c-.1-.17-.23-.32-.4-.43-.17-.11-.38-.16-.58-.16-.17,0-.34.03-.48.11-.15.08-.27.2-.35.35-.2.37-.29.78-.28,1.19v.07Z"/>
    <path class="cls-1" d="M89.13,10.89c-.02-.56.16-1.11.51-1.55.17-.2.39-.36.63-.46.24-.11.51-.15.77-.15.27-.01.53.04.78.14.24.11.46.26.63.47.35.44.54.99.52,1.55v.09c.02.56-.16,1.11-.52,1.55-.17.2-.39.36-.63.46-.24.11-.51.15-.77.15-.26.01-.53-.04-.77-.14-.24-.11-.46-.26-.63-.46-.36-.44-.54-.99-.52-1.55v-.09ZM89.91,10.97c-.02.41.08.81.29,1.16.09.14.21.26.36.33.15.08.32.11.48.11.17,0,.34-.03.48-.1.15-.08.27-.19.36-.34.21-.34.31-.73.3-1.12v-.08c.01-.39-.09-.78-.3-1.11-.09-.14-.21-.26-.36-.33-.15-.08-.32-.11-.48-.11-.17,0-.34.03-.48.1-.15.08-.27.19-.36.34-.2.34-.3.72-.3,1.11v.04Z"/>
    <path class="cls-1" d="M94.65,8.81l.05.63c.13-.22.32-.4.54-.52.22-.13.47-.19.73-.19.19,0,.39.02.57.09.18.07.35.17.49.31.27.36.4.8.37,1.25v2.68h-.77v-2.67c.03-.28-.05-.56-.22-.79-.09-.09-.2-.15-.32-.19-.12-.04-.24-.06-.37-.05-.21,0-.42.05-.59.16-.17.11-.32.26-.41.44v3.14h-.78v-4.19l.72-.09Z"/>
    <path class="cls-1" d="M104.83,10.38h-3.25v-1.39h3.25v1.39Z"/>
    <path class="cls-1" d="M110.95,11.66h3.39v1.39h-5.23v-7.8h1.84v6.41Z"/>
    <path class="cls-1" d="M117.7,13.18c-.38.02-.76-.04-1.12-.18-.35-.14-.68-.35-.94-.62-.26-.27-.46-.59-.59-.93-.13-.35-.19-.72-.18-1.09v-.22c-.04-.8.22-1.58.72-2.2.5-.51,1.19-.81,1.91-.84.72-.02,1.42.23,1.96.71.47.52.72,1.21.68,1.92v.94h-3.34c.03.28.16.54.37.73.22.2.52.3.81.28.28,0,.56-.02.84-.07.27-.07.53-.17.78-.28l.43,1.11c-.3.2-.64.36-.99.46-.43.16-.88.25-1.33.27ZM119.61,6.18v.12h-1.44l-.74-.67-.73.67h-1.41v-.14l1.61-1.35h1.06l1.65,1.37ZM117.58,8.56c-.12,0-.23.01-.33.06-.1.05-.19.12-.26.22-.15.22-.23.48-.24.74h1.58v-.14c.01-.24-.05-.48-.18-.68-.07-.08-.16-.14-.26-.18-.1-.04-.21-.06-.31-.05v.02Z"/>
    <path class="cls-1" d="M122.56,7.25l.07.82c.18-.28.42-.51.71-.68.29-.16.61-.24.94-.24.25-.01.5.03.73.13.23.1.44.24.61.43.36.51.54,1.13.49,1.75v3.6h-1.83v-3.6c.03-.25-.05-.5-.21-.7-.08-.07-.18-.13-.28-.17-.11-.04-.22-.05-.33-.04-.16,0-.31.03-.45.09-.13.05-.25.14-.34.25v4.19h-1.79v-5.82h1.68Z"/>
    <path class="cls-1" d="M135.69,6.54h-.63v6.51h-1.59l-.13-.71c-.16.25-.38.46-.63.61-.24.14-.52.22-.8.21-.32.02-.65-.05-.94-.18-.29-.14-.55-.34-.74-.6-.42-.62-.63-1.35-.59-2.09v-.12c-.03-.77.17-1.54.59-2.19.19-.27.44-.48.73-.63.29-.14.62-.21.95-.2.26,0,.52.06.74.19.23.13.43.31.58.52v-1.32h-1.25v-1.05h1.25v-.8h1.83v.83h.63v1.02ZM131.46,10.28c-.02.38.05.75.2,1.1.06.13.17.23.29.3.12.07.27.1.41.09.17,0,.35-.03.51-.1.15-.06.27-.17.36-.3v-2.37c-.09-.14-.21-.27-.35-.36-.15-.08-.32-.13-.5-.13-.15,0-.3.03-.43.11-.13.08-.23.2-.28.34-.16.37-.23.77-.21,1.17v.15Z"/>
    <path class="cls-1" d="M136.01,10.1c-.03-.77.24-1.51.74-2.09.27-.28.6-.51.96-.65.37-.14.76-.2,1.15-.18.39,0,.77.06,1.13.19.32.12.62.3.87.54.18-.16.32-.36.39-.59.1-.28.15-.57.14-.87h1.23c.01.47-.1.94-.32,1.36-.2.37-.52.67-.9.86.1.22.17.45.22.69.05.25.08.51.07.76v.12c.03.77-.24,1.51-.74,2.09-.57.52-1.31.82-2.09.82s-1.52-.29-2.09-.82c-.5-.58-.77-1.33-.74-2.09l-.03-.15ZM139.83,6.43h-1.49l-1.52-1.39h1.87l1.14,1.39ZM137.8,10.22c-.02.39.06.78.22,1.14.09.13.2.23.34.3.14.07.29.11.44.11s.3-.04.44-.11c.14-.07.25-.17.34-.3.17-.36.25-.75.23-1.14v-.12c.02-.39-.06-.78-.23-1.13-.08-.13-.19-.24-.33-.32-.14-.08-.29-.12-.45-.12s-.31.04-.45.12c-.14.08-.25.19-.33.32-.16.35-.24.74-.22,1.13v.12Z"/>
    <path class="cls-1" d="M144.66,5.91h-1.83v-1.21h1.83v1.21ZM144.66,13.05h-1.83v-5.8h1.83v5.8Z"/>
    <path class="cls-1" d="M149.62,7.79v1.05h.8v.57h-.8v2.58c0,.07,0,.15.02.22.02.07.06.14.11.2.04.04.09.08.15.1.06.02.12.03.18.03h.3l.1.52c-.07.06-.16.1-.25.12-.11.03-.22.05-.34.05-.14,0-.28-.01-.41-.06-.13-.05-.25-.13-.34-.23-.1-.12-.18-.26-.23-.42-.05-.15-.07-.31-.05-.47v-2.65h-.68v-.57h.68v-1.05l.78.02Z"/>
    <path class="cls-1" d="M152.24,7.73h-.78v-.83h.78v.83ZM152.24,13.05h-.78v-4.19h.78v4.19Z"/>
    <path class="cls-1" d="M155.22,13.18c-.27.01-.54-.03-.78-.14-.25-.1-.47-.26-.65-.46-.36-.43-.55-.97-.53-1.53v-.17c-.01-.27.03-.55.12-.81.09-.26.24-.5.43-.7.15-.19.35-.34.57-.45.22-.11.46-.16.71-.16.25-.02.49.02.72.11.23.09.43.23.6.41.31.39.47.88.44,1.37v.42h-2.77c-.01.37.1.74.32,1.05.1.13.23.23.37.3.15.07.31.1.47.09.23,0,.47-.04.69-.12.19-.07.37-.18.52-.31l.31.5c-.17.17-.38.3-.6.38-.29.13-.61.2-.93.2ZM154.73,7.02h.62l1.14,1.05h-.78l-.66-.62-.67.62h-.78l1.12-1.05ZM155.08,9.34c-.13,0-.25.03-.37.09-.12.06-.22.14-.3.23-.19.24-.31.52-.34.82h1.98v-.09c0-.28-.08-.55-.25-.76-.09-.1-.2-.17-.32-.22-.12-.05-.25-.07-.39-.06h-.01ZM156.85,6.34h.84l-.81,1.05h-.58l.56-1.05Z"/>
    <path class="cls-1" d="M158.75,7.79v1.05h.81v.57h-.81v2.58c0,.07,0,.15.02.22s.06.14.11.2c.04.04.09.08.15.1.06.02.12.03.18.03h.3l.11.52c-.08.05-.16.09-.25.12-.11.03-.22.05-.34.05-.14,0-.28-.02-.41-.07-.13-.05-.25-.13-.35-.23-.1-.12-.18-.27-.23-.42-.05-.15-.06-.31-.05-.47v-2.65h-.69v-.57h.69v-1.05l.77.02Z"/>
    <path class="cls-1" d="M163.84,11.09h-.51v1.97h-.78v-6.16h.78v3.54h.5l1.17-1.66h.93l-1.46,1.93,1.67,2.31h-.92l-1.39-1.93Z"/>
    <path class="cls-1" d="M167.56,7.73h-.78v-.83h.78v.83ZM167.56,13.05h-.78v-4.19h.78v4.19Z"/>
    <path class="cls-1" d="M170.53,13.18c-.27.01-.53-.04-.78-.14-.25-.1-.47-.26-.65-.46-.36-.43-.55-.97-.53-1.53v-.17c-.02-.55.18-1.09.55-1.51.16-.19.35-.34.58-.45.22-.11.47-.16.71-.16.25-.02.49.02.72.11s.43.23.6.41c.31.39.47.88.44,1.37v.42h-2.78c-.02.37.08.74.31,1.05.1.13.23.23.38.3.15.07.31.1.47.1.24,0,.47-.04.7-.12.19-.07.37-.18.52-.31l.3.5c-.17.17-.38.3-.6.38-.29.13-.6.2-.92.2ZM171.59,7.94v.09h-.64l-.58-.58-.57.58h-.63v-.09l.97-.93h.48l.98.93ZM170.38,9.35c-.13,0-.26.03-.37.09-.12.06-.22.14-.3.24-.2.23-.32.52-.35.82h1.98v-.09c0-.27-.08-.54-.24-.76-.09-.09-.19-.17-.31-.22-.12-.05-.25-.08-.38-.07h-.03ZM170.86,14.38h-.87v-.79h.87v.79Z"/>
    <path class="cls-1" d="M173.78,8.81l.06.55c.14-.2.32-.36.53-.47.23-.12.49-.18.75-.17.26,0,.51.06.73.2.22.14.38.34.46.59.13-.23.31-.43.53-.58.24-.14.51-.21.78-.21.2-.01.4.02.58.1.18.08.35.2.48.35.27.39.4.86.37,1.34v2.53h-.77v-2.54c.03-.31-.05-.63-.22-.89-.08-.09-.18-.16-.29-.21-.11-.05-.23-.06-.35-.06-.12,0-.24.02-.36.07-.11.05-.21.12-.3.21-.16.2-.26.44-.29.7v2.72h-.78v-2.54c.02-.31-.05-.62-.22-.88-.08-.09-.18-.16-.29-.21-.11-.05-.23-.07-.35-.06-.2,0-.41.04-.58.15-.16.1-.28.24-.36.41v3.14h-.78v-4.19l.68-.05Z"/>
    <path class="cls-1" d="M24.72,6.12l-2.79-2.62c-.08-.07-.17-.12-.27-.14-.1-.02-.21,0-.31.03-.1.04-.18.11-.24.2-.06.09-.09.19-.09.3v.78h-3.56c-.29,0-.57.11-.77.32-.21.2-.32.48-.32.77v1.35c0,.09.04.18.1.24.07.06.15.1.25.1.08,0,.16-.03.22-.09.06-.06.09-.14.09-.22v-1.38c0-.1.04-.2.11-.27.07-.07.17-.11.27-.11h3.53c.19,0,.37-.07.5-.21s.21-.31.21-.5v-.48l2.56,2.38s.03.05.03.09-.01.06-.03.09l-2.56,2.39v-.49c0-.19-.07-.37-.21-.5-.13-.13-.31-.21-.5-.21h-.12c.1.16.15.35.15.54v.95c0,.1.03.2.09.29.06.09.14.15.24.2.07.02.15.02.22,0,.14,0,.27-.06.36-.15l2.83-2.58c.08-.07.14-.16.18-.26.04-.1.06-.2.06-.31s-.02-.21-.06-.31c-.04-.1-.11-.19-.18-.26v.06Z"/>
    <path class="cls-1" d="M19.39,8.08h-3.52v-.78c0-.1-.03-.21-.08-.3-.06-.09-.14-.16-.23-.2-.07-.01-.15-.01-.22,0-.14,0-.27.06-.37.15l-2.78,2.59c-.08.07-.14.16-.18.26-.04.1-.06.2-.06.31s.02.21.06.31c.04.1.11.19.18.26l2.78,2.59c.08.07.17.12.27.14.1.02.21,0,.31-.03.1-.04.18-.11.24-.19.06-.09.09-.19.09-.29v-.79h3.52c.29,0,.57-.11.77-.32.21-.2.32-.48.32-.77v-1.9c0-.19-.05-.38-.15-.54-.1-.16-.24-.28-.4-.37-.16-.09-.35-.13-.54-.13Z"/>
  </g>
</svg>